<svg width="221" height="74" viewBox="0 0 221 74" fill="none" xmlns="http://www.w3.org/2000/svg">
<path d="M30.1224 30.2104C28.9867 31.3456 28.4191 32.9246 28.5741 34.5178L28.5474 34.4913C28.7067 36.3661 28.026 38.2154 26.6868 39.5458C25.3476 40.8762 23.4862 41.5525 21.599 41.3942L21.6257 41.4207C19.3407 41.2094 17.1678 42.4442 16.1926 44.5079C15.2175 46.5717 15.6496 49.0213 17.273 50.6326C18.8965 52.2439 21.3626 52.671 23.439 51.7004C25.5155 50.7298 26.7564 48.5699 26.5417 46.3001L26.5698 46.3266C26.4105 44.4518 27.0912 42.6025 28.4304 41.2721C29.7696 39.9417 31.631 39.2654 33.5182 39.4236L33.4901 39.3972C36.0013 39.6215 38.338 38.1004 39.1334 35.7234C39.9288 33.3464 38.9739 30.7382 36.8273 29.4242C34.6807 28.1102 31.9063 28.4358 30.1269 30.2104H30.1224Z" fill="#5454D4"/>
<path d="M19.2025 37.953L19.1744 37.9265C20.779 38.0872 22.3715 37.5234 23.5124 36.3909C24.6532 35.2584 25.2219 33.6767 25.0614 32.0824L25.0895 32.1089C24.9302 30.2341 25.611 28.3848 26.9501 27.0544C28.2893 25.724 30.1508 25.0477 32.0379 25.206L32.0098 25.1795C34.2949 25.3927 36.4692 24.1593 37.4458 22.0958C38.4224 20.0324 37.9916 17.5821 36.3687 15.9697C34.7457 14.3574 32.2793 13.9294 30.2022 14.8996C28.1252 15.8698 26.8837 18.0299 27.0983 20.3001L27.0716 20.2721C27.2315 22.1471 26.5509 23.9967 25.2116 25.3272C23.8723 26.6578 22.0105 27.3339 20.1232 27.1751L20.1499 27.203C18.5452 27.0424 16.9527 27.6061 15.8118 28.7387C14.671 29.8712 14.1023 31.4528 14.2628 33.0471L14.2362 33.0207C14.395 34.8954 13.7141 36.7443 12.375 38.0746C11.0359 39.4049 9.17482 40.0813 7.28778 39.9236L7.31442 39.9501C5.02929 39.7369 2.855 40.9703 1.87839 43.0337C0.90178 45.0972 1.33263 47.5475 2.95557 49.1598C4.57852 50.7721 7.04495 51.2002 9.122 50.23C11.199 49.2597 12.4406 47.0997 12.226 44.8295L12.2541 44.856C12.0948 42.9811 12.7755 41.1319 14.1147 39.8014C15.4539 38.471 17.3153 37.7948 19.2025 37.953Z" fill="#FF7143"/>
<path d="M9.28171 35.0016C10.4177 33.8665 10.9848 32.2873 10.8286 30.6942L10.8567 30.7207C10.6973 28.8453 11.3784 26.9955 12.7183 25.665C14.0581 24.3344 15.9204 23.6586 17.8081 23.8178L17.78 23.7913C20.0643 24.0039 22.2375 22.7706 23.2135 20.7078C24.1896 18.645 23.7587 16.1957 22.1364 14.5839C20.514 12.9722 18.0486 12.5442 15.9722 13.5138C13.8958 14.4835 12.6544 16.6425 12.8684 18.9119L12.8418 18.8854C13.0011 20.7602 12.3203 22.6095 10.9812 23.9399C9.64198 25.2703 7.78054 25.9466 5.89336 25.7883L5.92001 25.8148C3.40888 25.5911 1.07266 27.1127 0.277732 29.4896C-0.517197 31.8666 0.437973 34.4746 2.58459 35.7882C4.73121 37.1019 7.50542 36.7762 9.28467 35.0016H9.28171Z" fill="#5454D4"/>
<path d="M55.1361 20.334H59.5325V41.5884H55.1361V20.334Z" fill="#19191B"/>
<path fill-rule="evenodd" clip-rule="evenodd" d="M66.7954 27.1596C63.8941 28.3636 62.0098 31.1867 62.0223 34.3104C62.0071 36.3586 62.8215 38.3269 64.2823 39.7724C65.7432 41.2178 67.7277 42.019 69.7893 41.9957C72.9336 41.9957 75.7677 40.1123 76.968 37.2252C78.1683 34.3381 77.4981 31.0168 75.2703 28.8124C73.0425 26.6081 69.6967 25.9555 66.7954 27.1596ZM69.7269 31.0536C71.5768 31.0196 73.1087 32.4729 73.1599 34.3103C73.2098 35.2212 72.874 36.1114 72.2338 36.7653C71.5936 37.4192 70.7072 37.7773 69.7893 37.753C67.9391 37.7531 66.4343 36.2721 66.4172 34.434C66.4001 32.596 67.877 31.0875 69.7269 31.0536Z" fill="#19191B"/>
<path fill-rule="evenodd" clip-rule="evenodd" d="M95.0783 40.8545V27.031L90.7988 27.0281V28.5133C89.7549 27.2443 88.1672 26.5421 86.5194 26.6207C82.4997 26.7466 79.3069 30.0203 79.3069 34.0156C79.3069 38.0109 82.4997 41.2845 86.5194 41.4104C88.1672 41.489 89.7549 40.7868 90.7988 39.5178V40.8486C90.8724 41.7267 90.5403 42.5905 89.8963 43.1963C89.2522 43.8021 88.366 44.0843 87.4875 43.9633C86.0978 44.1043 84.7661 43.3733 84.1465 42.1295L80.3955 44.2839C81.863 46.6593 84.5432 48.0214 87.3409 47.8133C91.2385 47.8133 95.0783 45.7457 95.0783 40.8545ZM88.7112 30.6533C90.0338 31.2458 90.8608 32.5777 90.8003 34.0177C90.8277 34.9476 90.458 35.8456 89.7826 36.4899C89.1073 37.1342 88.1892 37.4649 87.2551 37.4001C85.8043 37.4018 84.4982 36.527 83.9557 35.1903C83.4133 33.8535 83.7436 32.3234 84.79 31.325C85.8364 30.3267 87.3887 30.0608 88.7112 30.6533Z" fill="#19191B"/>
<path fill-rule="evenodd" clip-rule="evenodd" d="M102.341 27.1596C99.4399 28.3636 97.5555 31.1867 97.5681 34.3104C97.5529 36.3586 98.3673 38.3269 99.8281 39.7724C101.289 41.2178 103.273 42.019 105.335 41.9957C108.479 41.9957 111.313 40.1123 112.514 37.2252C113.714 34.3381 113.044 31.0168 110.816 28.8124C108.588 26.6081 105.243 25.9555 102.341 27.1596ZM105.273 31.0536C107.123 31.0196 108.654 32.4729 108.706 34.3103C108.756 35.2212 108.42 36.1114 107.78 36.7653C107.139 37.4192 106.253 37.7773 105.335 37.753C103.485 37.7531 101.98 36.2721 101.963 34.434C101.946 32.596 103.423 31.0875 105.273 31.0536Z" fill="#19191B"/>
<path fill-rule="evenodd" clip-rule="evenodd" d="M116.781 20.7085C115.795 21.1141 115.152 22.0696 115.152 23.1296C115.167 24.5709 116.339 25.7358 117.79 25.7502C118.857 25.7502 119.819 25.1117 120.227 24.1324C120.635 23.1532 120.41 22.026 119.655 21.2765C118.901 20.5271 117.766 20.3029 116.781 20.7085ZM119.994 27.031H115.596L115.59 41.5898H119.994V27.031Z" fill="#19191B"/>
<path fill-rule="evenodd" clip-rule="evenodd" d="M137.084 39.6C138.398 38.1575 139.08 36.2537 138.977 34.3104C139.081 32.3667 138.399 30.4623 137.085 29.0193C135.77 27.5764 133.93 26.7141 131.973 26.6236C130.323 26.5342 128.72 27.1859 127.607 28.3986V27.031H123.211V47.4118H127.607V40.2192C128.72 41.4328 130.323 42.0851 131.973 41.9957C133.929 41.9048 135.769 41.0426 137.084 39.6ZM131.036 30.9329C132.951 30.901 134.533 32.4087 134.581 34.3103C134.647 35.2554 134.304 36.1836 133.639 36.8619C132.973 37.5401 132.047 37.9039 131.095 37.8618C129.18 37.862 127.623 36.3285 127.607 34.4263C127.591 32.5241 129.122 30.9647 131.036 30.9329Z" fill="#19191B"/>
<path d="M152.544 37.2207C152.544 40.5693 149.614 41.9957 146.45 41.9957C143.833 42.2312 141.337 40.8585 140.148 38.531L143.957 36.3766C144.274 37.4602 145.311 38.176 146.444 38.0943C147.498 38.0943 148.026 37.7737 148.026 37.1928C148.026 35.5899 140.816 36.4354 140.816 31.3987C140.816 28.2237 143.513 26.6237 146.561 26.6237C148.894 26.5503 151.083 27.7436 152.275 29.7384L148.524 31.7472C148.187 30.9676 147.414 30.4633 146.561 30.4663C145.798 30.4663 145.329 30.7604 145.329 31.281C145.335 32.9413 152.544 31.834 152.544 37.2207Z" fill="#19191B"/>
<path d="M168.603 27.031V41.5898H164.207V40.2207C163.178 41.4462 161.62 42.1069 160.018 41.9972C157.057 41.9972 154.541 39.9016 154.541 35.9678V27.031H158.937V35.3281C158.863 36.0299 159.103 36.7287 159.594 37.2386C160.085 37.7485 160.777 38.0179 161.486 37.9751C163.098 37.9751 164.211 37.0442 164.211 34.9766V27.0354L168.603 27.031Z" fill="#19191B"/>
<path d="M193.812 32.6501V41.5883H189.416V33.0281C189.416 31.5722 188.713 30.6413 187.307 30.6413C185.841 30.6413 185.02 31.6604 185.02 33.3781V41.5883H180.625V33.0281C180.625 31.5722 179.922 30.6413 178.514 30.6413C177.048 30.6413 176.228 31.6604 176.228 33.3781V41.5883H171.832V27.0295H176.228V28.3678C177.154 27.1614 178.633 26.5041 180.155 26.6222C181.686 26.5478 183.143 27.277 183.994 28.5428C184.984 27.2195 186.589 26.4942 188.244 26.6222C191.608 26.6236 193.812 29.0104 193.812 32.6501Z" fill="#19191B"/>
<path d="M197.531 26.9413C199.333 26.9413 200.793 25.4902 200.793 23.7002C200.793 21.9101 199.333 20.459 197.531 20.459C195.729 20.459 194.268 21.9101 194.268 23.7002C194.268 25.4902 195.729 26.9413 197.531 26.9413Z" fill="#19191B"/>
<path d="M197.531 53.4236C199.333 53.4236 200.793 51.9725 200.793 50.1825C200.793 48.3924 199.333 46.9413 197.531 46.9413C195.729 46.9413 194.268 48.3924 194.268 50.1825C194.268 51.9725 195.729 53.4236 197.531 53.4236Z" fill="#19191B"/>
<rect x="174.768" y="0.958984" width="45.525" height="71.9646" rx="4.5" stroke="#9747FF" stroke-dasharray="10 5"/>
</svg>
